# xmcd
#
# Track frame offsets:
#	150
#	19996
#	39425
#	57116
#	77048
#	92012
#	109716
#	125343
#	143220
#	166440
#	181941
#	200520
#	213997
#	229822
#	245443
#
# Disc length: 3520 seconds
#
# Revision: 0
# Processed by: cddbd v1.5.2PL0 Copyright (c) Steve Scherf et al.
# Submitted via: audiograbber 1.83.01
#
DISCID=c80dbe0f
DTITLE=Rascal Flatts - Changed (Deluxe Edition)
DYEAR=2012
DGENRE=Country
TTITLE0=Changed
TTITLE1=Banjo
TTITLE2=Hot In Here
TTITLE3=Come Wake Me Up
TTITLE4=She's Leaving
TTITLE5=Let It Hurt
TTITLE6=Lovin' Me
TTITLE7=Hurry Baby
TTITLE8=Sunrise
TTITLE9=Great Big Love
TTITLE10=A Little Home
TTITLE11=Friday (Bonus Track)
TTITLE12=Fall Here (Bonus Track)
TTITLE13=Right One Time (Bonus Track)
TTITLE14=Next To You, Next To Me (Bonus Track)
EXTD=
EXTT0=
EXTT1=
EXTT2=
EXTT3=
EXTT4=
EXTT5=
EXTT6=
EXTT7=
EXTT8=
EXTT9=
EXTT10=
EXTT11=
EXTT12=
EXTT13=
EXTT14=
PLAYORDER=
